<svg enable-background="new 0 0 128 128" viewBox="0 0 128 128" xmlns="http://www.w3.org/2000/svg" xmlns:xlink="http://www.w3.org/1999/xlink"><linearGradient id="a"><stop offset=".3563" stop-color="#bfbebe"/><stop offset="1" stop-color="#504f4f"/></linearGradient><linearGradient id="b" gradientUnits="userSpaceOnUse" x1="108.54" x2="108.54" xlink:href="#a" y1="122.8832" y2="76.5578"/><linearGradient id="c" gradientUnits="userSpaceOnUse" x1="20.27" x2="20.27" xlink:href="#a" y1="122.8832" y2="76.5578"/><linearGradient id="d" gradientTransform="matrix(1 0 0 -1 0 128)" gradientUnits="userSpaceOnUse" x1="64" x2="64" y1="88.808" y2="46.98"><stop offset=".0256" stop-color="#ffee58"/><stop offset=".4867" stop-color="#fdd642"/><stop offset="1" stop-color="#fbc02d"/></linearGradient><linearGradient id="e"><stop offset=".5711" stop-color="#f44336"/><stop offset=".9988" stop-color="#e12400"/></linearGradient><radialGradient id="f" cx="20.35" cy="31.4" gradientUnits="userSpaceOnUse" r="9.04" xlink:href="#e"/><radialGradient id="g" cx="108.54" cy="31.4" gradientUnits="userSpaceOnUse" r="9.04" xlink:href="#e"/><linearGradient id="h" gradientUnits="userSpaceOnUse" x1="4" x2="124" y1="61.4" y2="61.4"><stop offset=".0012001" stop-color="#bfbebe"/><stop offset=".05" stop-color="#212121" stop-opacity="0"/><stop offset=".95" stop-color="#212121" stop-opacity="0"/><stop offset="1" stop-color="#bfbebe"/></linearGradient><linearGradient id="i" gradientTransform="matrix(1 0 0 -1 0 122.8)" gradientUnits="userSpaceOnUse" x1="64" x2="64" y1="41.9946" y2="81.4285"><stop offset=".0012001" stop-color="#bfbebe"/><stop offset=".3" stop-color="#212121" stop-opacity="0"/><stop offset=".85" stop-color="#212121" stop-opacity="0"/><stop offset="1" stop-color="#bfbebe"/></linearGradient><path d="m112.51 124h-7.94c-1.66 0-3-1.34-3-3v-43.73h13.94v43.73c0 1.66-1.34 3-3 3z" fill="url(#b)"/><path d="m24.24 124h-7.94c-1.66 0-3-1.34-3-3v-43.73h13.94v43.73c0 1.66-1.34 3-3 3z" fill="url(#c)"/><path d="m120 82.17h-112c-2.21 0-4-1.79-4-4v-33.54c0-2.21 1.79-4 4-4h112c2.21 0 4 1.79 4 4v33.54c0 2.21-1.79 4-4 4z" fill="url(#d)"/><circle cx="20.35" cy="31.4" fill="url(#f)" r="9.04"/><circle cx="108.54" cy="31.4" fill="url(#g)" r="9.04"/><path d="m12.1 40.63-8.1 14.03v-10.03c0-2.21 1.79-4 4-4z"/><path d="m48.54 40.63-23.99 41.54h-16.55c-.45 0-.88-.08-1.29-.22l23.86-41.32z"/><path d="m84.98 40.63-23.99 41.54h-17.97l23.99-41.54z"/><path d="m121.29 40.85-23.86 41.32h-17.97l23.99-41.54h16.55c.45 0 .88.08 1.29.22z"/><path d="m124 68.14v10.03c0 2.21-1.79 4-4 4h-4.1z"/><path d="m124 44.63v33.54c0 2.21-1.79 4-4 4h-112c-.45 0-.88-.08-1.29-.22-1.58-.53-2.71-2.02-2.71-3.78v-33.54c0-2.21 1.79-4 4-4h112c.45 0 .88.08 1.29.22 1.58.53 2.71 2.02 2.71 3.78z" fill="url(#h)" opacity=".2"/><path d="m124 78.17v-33.54c0-2.21-1.79-4-4-4h-112c-.45 0-.88.08-1.29.22-1.58.53-2.71 2.02-2.71 3.78v33.54c0 2.21 1.79 4 4 4h112c.45 0 .88-.08 1.29-.22 1.58-.53 2.71-2.02 2.71-3.78z" fill="url(#i)" opacity=".3"/></svg>